<svg width="228" height="57" viewBox="0 0 228 57" fill="none" xmlns="http://www.w3.org/2000/svg">
<path d="M31.5674 56.2567C38.4928 56.2567 45.1346 53.3336 50.0316 48.1306C54.9286 42.9275 57.6797 35.8706 57.6797 28.5124C57.6797 21.1541 54.9286 14.0973 50.0316 8.89419C45.1346 3.69113 38.4928 0.768075 31.5674 0.768074L31.5674 56.2567Z" fill="#F8C605"/>
<path d="M140.919 56.2567C147.844 56.2567 154.486 53.3336 159.383 48.1306C164.28 42.9275 167.031 35.8706 167.031 28.5124C167.031 21.1541 164.28 14.0973 159.383 8.89419C154.486 3.69113 147.844 0.768075 140.919 0.768074L140.919 56.2567Z" fill="#E2491A"/>
<path d="M197.216 0.761566C197.216 4.405 196.519 8.01276 195.166 11.3788C193.813 14.7449 191.829 17.8035 189.329 20.3797C186.828 22.956 183.86 24.9997 180.593 26.394C177.326 27.7882 173.824 28.5059 170.288 28.5059L170.288 0.761566H197.216Z" fill="#30C04F"/>
<path d="M170.174 28.5111C173.703 28.5095 177.197 29.2254 180.458 30.6179C183.719 32.0104 186.682 34.0523 189.179 36.6269C191.675 39.2015 193.656 42.2585 195.008 45.6233C196.36 48.988 197.056 52.5947 197.058 56.2373L170.186 56.2493L170.174 28.5111Z" fill="#F8C605"/>
<path d="M198.031 0.768074H217.81C223.11 0.768074 227.408 5.06517 227.408 10.3659V28.5124H207.629C202.328 28.5124 198.031 24.2153 198.031 18.9145V0.768074Z" fill="#E2491A"/>
<path d="M0.195312 0.768074H19.9738C25.2746 0.768074 29.5717 5.06517 29.5717 10.3659V28.5124H9.79315C4.49241 28.5124 0.195312 24.2153 0.195312 18.9145V0.768074Z" fill="#E2491A"/>
<path d="M198.031 56.2671V38.1206C198.031 32.8199 202.328 28.5228 207.629 28.5228H227.408V46.6693C227.408 51.97 223.11 56.2671 217.81 56.2671H198.031Z" fill="#30C04F"/>
<path d="M0.195312 56.2671V38.1206C0.195313 32.8199 4.49241 28.5228 9.79315 28.5228H29.5717V46.6693C29.5717 51.97 25.2746 56.2671 19.9738 56.2671H0.195312Z" fill="#30C04F"/>
<path d="M140.919 56.2567C133.994 56.2567 127.352 53.3336 122.455 48.1306C117.558 42.9275 114.807 35.8706 114.807 28.5124C114.807 21.1541 117.558 14.0973 122.455 8.89419C127.352 3.69113 133.994 0.768075 140.919 0.768074L140.919 56.2567Z" fill="#F8C605"/>
<path d="M59.3174 56.2567C62.7465 56.2567 66.142 55.539 69.3101 54.1448C72.4782 52.7505 75.3568 50.7069 77.7816 48.1306C80.2063 45.5543 82.1297 42.4957 83.442 39.1297C84.7543 35.7636 85.4297 32.1558 85.4297 28.5124L59.3174 28.5124V56.2567Z" fill="#E2491A"/>
<path d="M85.4115 28.5743C81.9965 28.5854 78.6127 27.879 75.4531 26.4952C72.2936 25.1115 69.4202 23.0777 66.9971 20.5098C64.574 17.9419 62.6485 14.8903 61.3307 11.5292C60.013 8.16815 59.3286 4.56338 59.3168 0.920755L85.3213 0.836197L85.4115 28.5743Z" fill="#30C04F"/>
<path d="M85.4255 28.4912C85.4255 25.0621 86.1431 21.6666 87.5374 18.4985C88.9317 15.3304 90.9753 12.4518 93.5516 10.027C96.1279 7.60228 99.1864 5.67886 102.552 4.36659C105.919 3.05433 109.526 2.37891 113.17 2.37891V28.4912H85.4255Z" fill="#E2491A"/>
<path d="M85.4189 28.5104C88.8481 28.5104 92.2436 29.2281 95.4117 30.6223C98.5798 32.0166 101.458 34.0603 103.883 36.6366C106.308 39.2128 108.231 42.2714 109.544 45.6375C110.856 49.0035 111.531 52.6113 111.531 56.2547H85.4189V28.5104Z" fill="#30C04F"/>
</svg>
